# xmcd
#
# Track frame offsets:
#	150
#	26652
#	37170
#	49717
#	59512
#	83457
#	93425
#	107110
#	115627
#	128345
#	139410
#	150310
#	159562
#	176710
#	192530
#	211565
#	220090
#	239100
#
# Disc length: 3398 seconds
#
# Revision: 0
# Processed by: cddbd v1.4PL0 Copyright (c) Steve Scherf et al.
# Submitted via: dBpowerAMP V4.0
#
DISCID=f50d4412
DTITLE=best loved iresh songs - The wild river
DYEAR=1900
DGENRE=
TTITLE0=The town i loved so well
TTITLE1=Fields of Arhenry
TTITLE2=The wild rover
TTITLE3=Old Cladagh Ring
TTITLE4=When you were sweet sixteen
TTITLE5=The rose of mooncoin
TTITLE6=My wild Irish Rose
TTITLE7=Star of the County Down
TTITLE8=The rose of trafee
TTITLE9=Eileen O'grady
TTITLE10=I'll remember you in my prayers
TTITLE11=where the three counties meet
TTITLE12=McCarthy's party
TTITLE13=Rose of Allendale
TTITLE14=Raglan Toad
TTITLE15=Hello Patsy Fagan
TTITLE16=The last farewell
TTITLE17=Carrickfergus
EXTD=
EXTT0=
EXTT1=
EXTT2=
EXTT3=
EXTT4=
EXTT5=
EXTT6=
EXTT7=
EXTT8=
EXTT9=
EXTT10=
EXTT11=
EXTT12=
EXTT13=
EXTT14=
EXTT15=
EXTT16=
EXTT17=
PLAYORDER=
